<svg width="325" height="189" viewBox="0 0 325 189" fill="none" xmlns="http://www.w3.org/2000/svg">
<path d="M95.8214 36.02C76.9281 36.02 63.2347 41.3067 54.7414 51.88C46.4214 62.28 42.2614 76.58 42.2614 94.78C42.2614 103.62 43.3014 111.68 45.3814 118.96C47.4614 126.067 50.5814 132.22 54.7414 137.42C58.9014 142.62 64.1014 146.693 70.3414 149.64C76.5814 152.413 83.8614 153.8 92.1814 153.8C96.6881 153.8 100.501 153.713 103.621 153.54C106.915 153.367 109.775 153.02 112.201 152.5V89.84H152.761V179.02C147.908 180.927 140.108 182.92 129.361 185C118.615 187.253 105.355 188.38 89.5814 188.38C76.0614 188.38 63.7547 186.3 52.6614 182.14C41.7414 177.98 32.3814 171.913 24.5814 163.94C16.7814 155.967 10.7147 146.173 6.3814 134.56C2.2214 122.947 0.141403 109.687 0.141403 94.78C0.141403 79.7 2.4814 66.3533 7.16141 54.74C11.8414 43.1267 18.2547 33.3333 26.4014 25.36C34.5481 17.2133 44.0814 11.06 55.0014 6.89998C66.0947 2.73999 77.8814 0.659987 90.3614 0.659987C98.8547 0.659987 106.481 1.26666 113.241 2.47999C120.175 3.51999 126.068 4.81999 130.921 6.37999C135.948 7.76666 140.021 9.24 143.141 10.8C146.435 12.36 148.775 13.5733 150.161 14.44L138.461 46.94C132.915 43.9933 126.501 41.48 119.221 39.4C112.115 37.1467 104.315 36.02 95.8214 36.02ZM267.98 36.02C249.087 36.02 235.393 41.3067 226.9 51.88C218.58 62.28 214.42 76.58 214.42 94.78C214.42 103.62 215.46 111.68 217.54 118.96C219.62 126.067 222.74 132.22 226.9 137.42C231.06 142.62 236.26 146.693 242.5 149.64C248.74 152.413 256.02 153.8 264.34 153.8C268.847 153.8 272.66 153.713 275.78 153.54C279.073 153.367 281.933 153.02 284.36 152.5V89.84H324.92V179.02C320.067 180.927 312.267 182.92 301.52 185C290.773 187.253 277.513 188.38 261.74 188.38C248.22 188.38 235.913 186.3 224.82 182.14C213.9 177.98 204.54 171.913 196.74 163.94C188.94 155.967 182.873 146.173 178.54 134.56C174.38 122.947 172.3 109.687 172.3 94.78C172.3 79.7 174.64 66.3533 179.32 54.74C184 43.1267 190.413 33.3333 198.56 25.36C206.707 17.2133 216.24 11.06 227.16 6.89998C238.253 2.73999 250.04 0.659987 262.52 0.659987C271.013 0.659987 278.64 1.26666 285.4 2.47999C292.333 3.51999 298.227 4.81999 303.08 6.37999C308.107 7.76666 312.18 9.24 315.3 10.8C318.593 12.36 320.933 13.5733 322.32 14.44L310.62 46.94C305.073 43.9933 298.66 41.48 291.38 39.4C284.273 37.1467 276.473 36.02 267.98 36.02Z" fill="#C2ADC5"/>
</svg>
