<svg width="125" height="198" viewBox="0 0 125 198" fill="none" xmlns="http://www.w3.org/2000/svg">
<path d="M49.5 37.125C54.4231 37.125 59.1445 35.1693 62.6257 31.6882C66.1068 28.207 68.0625 23.4856 68.0625 18.5625C68.0625 13.6394 66.1068 8.91797 62.6257 5.43683C59.1445 1.95569 54.4231 0 49.5 0C44.5769 0 39.8555 1.95569 36.3743 5.43683C32.8932 8.91797 30.9375 13.6394 30.9375 18.5625C30.9375 23.4856 32.8932 28.207 36.3743 31.6882C39.8555 35.1693 44.5769 37.125 49.5 37.125ZM24.75 83.5312V188.719C24.75 191.18 25.7278 193.541 27.4684 195.282C29.209 197.022 31.5697 198 34.0312 198C36.4928 198 38.8535 197.022 40.5941 195.282C42.3347 193.541 43.3125 191.18 43.3125 188.719V129.938C43.3125 128.296 43.9644 126.723 45.1248 125.562C46.2852 124.402 47.859 123.75 49.5 123.75C51.141 123.75 52.7148 124.402 53.8752 125.562C55.0356 126.723 55.6875 128.296 55.6875 129.938V188.719C55.6875 191.18 56.6653 193.541 58.4059 195.282C60.1465 197.022 62.5072 198 64.9688 198C67.4303 198 69.791 197.022 71.5316 195.282C73.2722 193.541 74.25 191.18 74.25 188.719V83.5312C74.25 82.7107 74.5759 81.9238 75.1561 81.3436C75.7363 80.7634 76.5232 80.4375 77.3438 80.4375C78.1643 80.4375 78.9512 80.7634 79.5314 81.3436C80.1116 81.9238 80.4375 82.7107 80.4375 83.5312V114.469C80.4375 116.93 81.4153 119.291 83.1559 121.032C84.8965 122.772 87.2572 123.75 89.7188 123.75C92.1803 123.75 94.541 122.772 96.2816 121.032C98.0222 119.291 99 116.93 99 114.469V80.4375C99 70.5913 95.0886 61.1484 88.1263 54.1862C81.1641 47.2239 71.7212 43.3125 61.875 43.3125H37.125C27.2788 43.3125 17.8359 47.2239 10.8737 54.1862C3.91137 61.1484 0 70.5913 0 80.4375V114.469C0 116.93 0.977842 119.291 2.71841 121.032C4.45899 122.772 6.81971 123.75 9.28125 123.75C11.7428 123.75 14.1035 122.772 15.8441 121.032C17.5847 119.291 18.5625 116.93 18.5625 114.469V83.5312C18.5625 82.7107 18.8884 81.9238 19.4686 81.3436C20.0488 80.7634 20.8357 80.4375 21.6562 80.4375C22.4768 80.4375 23.2637 80.7634 23.8439 81.3436C24.4241 81.9238 24.75 82.7107 24.75 83.5312Z" fill="white"/>
<path d="M50 81.4255L125 61V198H50V81.4255Z" fill="#B1C6DF"/>
</svg>
