<svg width="856" height="598" viewBox="0 0 856 598" fill="none" xmlns="http://www.w3.org/2000/svg">
<path d="M209.236 2.01682C213.843 1.12044 218.636 0.0108292 223.341 0.00013561C238.985 -0.0350904 331.548 6.80127 336.656 10.1836C338.084 11.1265 338.933 12.8444 339.266 14.485C339.304 14.6561 339.31 14.8315 339.329 15.0045C312.4 11.4649 285.062 10.0968 258.007 7.69135C245.206 6.5528 223.505 2.80438 211.691 4.14863C210.773 5.44067 210.295 6.66477 209.773 8.15873C209.372 6.14959 209.353 4.0593 209.236 2.01682Z" fill="#33425B"/>
<path d="M832.726 578.853C834.758 571.826 835.607 560.259 834.173 553.132C833.267 548.628 827.719 543.023 829.273 538.337C830.468 534.745 832.575 537.135 835.481 535.89C847.131 537.148 856.378 547.237 867.858 547.37C868.38 548.307 868.713 548.98 868.808 550.074C869.355 556.421 869.846 591.767 868.575 596.397C868.449 596.881 868.298 597.151 868.091 597.623C865.6 596.17 862.385 595.164 859.693 594.057C848.207 589.314 842.181 587.502 832.726 578.853Z" fill="#071426"/>
<path d="M789.568 145.325C793.411 146.14 802.061 147.755 805.212 149.617C804.13 150.493 803.696 150.885 802.256 150.995C798.972 150.538 795.676 151.298 792.424 150.939C790.304 150.705 790.002 150.053 788.826 148.443C789.87 147.955 790.153 148.066 790.681 146.99L789.568 145.325Z" fill="#071426"/>
<path d="M805.212 149.617C808.206 149.771 810.917 150.587 813.868 150.946C818.233 151.481 822.668 151.559 827.021 152.235C834.236 153.356 841.822 155.852 848.792 158.043C855.485 156.606 861.492 153.084 868.103 151.571L868.072 153.575C865.065 155.074 861.725 156.178 858.554 157.278C855.069 158.487 851.465 158.901 847.791 158.604C840.646 158.027 833.833 154.559 826.687 153.662C821.252 152.979 812.54 155.162 807.822 152.889L807.659 152.327C806.174 151.443 804.451 151.679 802.74 151.631L802.23 151.301L802.256 150.996C803.696 150.885 804.13 150.494 805.212 149.617Z" fill="#021C3D"/>
<path d="M607.04 53.9062C621.584 57.0055 635.85 61.2188 650.337 64.508C656.212 65.8422 666.818 66.9493 671.844 69.0044C682.003 70.4751 692.042 73.1762 702.025 75.5074L704.132 76.0175C708.542 76.9617 725.224 79.442 727.822 81.7814L727.985 82.4161C729.715 84.4692 737.968 109.001 737.641 111.557C737.622 111.7 737.572 111.837 737.534 111.977C740.932 119.399 741.645 125.842 741.645 125.842C741.645 125.842 747.523 132.834 749.272 135.845C749.178 135.272 749.549 136.312 749.272 135.845C751.782 136.784 756.663 137.902 758.556 139.619C758.424 139.646 758.292 139.677 758.154 139.7C754.292 140.372 748.366 137.723 745.579 140.84L745.485 143.537L743.787 144.568C740.881 142.741 733.93 142.678 730.363 141.821L654.482 124.092C645.726 122.043 626.364 119.425 619.25 115.051C621.867 108.751 604.26 61.3402 607.04 53.9062ZM749.272 135.845C749.178 135.272 749.549 136.312 749.272 135.845C747.523 132.834 741.645 125.842 741.645 125.842C742.652 128.863 743.12 131.805 744.019 135C744.957 136.023 745.322 136.457 746.768 136.427C747.548 136.411 748.605 136.258 749.272 135.845Z" fill="#0A1019"/>
<path d="M735.691 129.908C735.817 129.886 735.943 129.859 736.069 129.842C737.805 129.624 739.635 129.564 741.044 130.783C742.24 131.814 742.906 133.014 742.781 134.619C742.648 136.232 741.623 137.21 740.39 138.088C739.113 136.651 736.572 136.11 735.062 134.492C734.622 132.724 735.106 131.593 735.691 129.908Z" fill="#071426"/>
<path d="M209.772 8.15861C210.295 6.66465 210.773 5.44054 211.691 4.1485C223.504 2.80425 245.206 6.55267 258.007 7.69123C285.062 10.0967 312.4 11.4648 339.329 15.0044C338.863 22.6717 341.751 34.775 343.701 42.3574C344.978 47.3237 346.424 52.3081 347.362 57.3492C347.77 60.0591 348.028 62.9565 348.827 65.5758C349.06 68.448 349.362 71.3346 349.45 74.2149L346.072 76.5619C340.058 75.4793 333.919 74.5886 327.987 73.1475L323.615 77.7659C315.954 76.0222 308.085 75.1409 300.347 73.7287C290.692 71.9649 280.998 69.6167 271.21 68.7593C259.932 67.7717 248.269 67.0898 236.953 66.6445C231.782 66.4407 224.63 67.6572 219.831 66.1142C217.931 65.5053 217.302 63.371 216.447 61.7387C213.867 43.9973 212.043 25.9704 209.772 8.15861Z" fill="#0A1019"/>
<path d="M215.528 7.40994C217.403 7.33257 219.114 7.0967 220.85 7.92136C221.724 9.94308 221.164 11.4987 220.869 13.6393C219.17 13.8205 218.422 13.7632 216.919 12.9316C215.598 11.0665 215.623 9.60088 215.528 7.40994Z" fill="#071426"/>
<path d="M5.08324 71.0006C18.7113 68.5166 18.7629 69.7514 30.3302 60.9882C34.5574 57.7858 39.5356 54.6532 44.7081 53.2813C56.0786 50.2651 95.0511 51.7691 107.704 53.6726C115.031 54.7753 122.121 56.914 129.488 57.945C138.294 58.062 147.117 58.8816 155.911 58.396C158.256 57.9198 160.76 57.945 163.149 57.816C170.742 58.0028 178.305 58.8659 185.878 59.405C190.752 59.7516 195.709 59.6975 200.556 60.2095C205.721 60.6152 211.402 60.6473 216.447 61.7381C217.302 63.3704 217.931 65.5047 219.831 66.1136C224.631 67.6567 231.783 66.4401 236.954 66.6439C248.27 67.0893 259.932 67.7711 271.211 68.7587C280.999 69.6161 290.692 71.9643 300.348 73.7281C308.085 75.1403 315.954 76.0216 323.616 77.7653L327.988 73.1469C333.919 74.588 340.059 75.4787 346.072 76.5613L349.45 74.2144C358.452 75.4523 367.516 76.3242 376.549 77.3061C391.067 78.3559 408.542 80.4626 422.934 82.7881C431.948 84.2437 440.843 86.4114 449.939 87.3216L451.172 88.8577C464.973 90.658 479.334 92.1727 493.254 91.884C494.651 93.0766 495.223 93.8743 495.733 95.6456C495.16 97.3868 494.814 97.5271 493.173 98.3631C488.505 100.735 453.254 114.796 449.631 115.267C444.976 115.872 440.258 114.38 435.918 112.886C433.722 112.128 431.508 111.176 429.269 110.58C427.042 110.451 424.916 110.15 422.796 110.961C424.318 113.348 435.276 115.205 438.327 115.878C441.736 116.63 449.863 116.792 452.247 118.693C452.801 120.057 452.826 120.139 452.48 121.564C450.662 123.121 447.379 124.093 444.995 123.854C444.447 123.799 443.906 123.695 443.365 123.603C437.61 122.628 421.311 118.821 416.933 119.397C413.31 119.578 409.108 118.757 405.491 118.377C392.432 117.005 379.808 114.611 366.849 112.785C350.62 110.498 333.901 109.508 317.565 107.724C298.014 105.588 278.527 103.373 258.919 101.723C247.704 100.779 235.777 98.9519 224.606 100.692C214.082 98.8273 202.992 98.3788 192.327 97.3962C172.484 95.5683 152.472 93.639 132.551 93.0005C127.41 91.8224 121.339 91.9865 116.062 91.7154C108.419 90.2737 100.016 90.1107 92.2538 89.5188C76.8451 88.3402 61.4292 87.257 46.0071 86.2692C31.1744 85.2911 15.5718 82.8756 0.7605 83.2675C0.254126 79.7631 -0.300672 76.1468 1.22034 72.8255C2.67152 71.4988 3.13638 71.4196 5.08324 71.0006Z" fill="#5F7193"/>
<path d="M243.822 89.4315C235.519 89.2107 227.172 87.2387 218.837 86.6581L174.23 83.4833C165.273 82.8486 156.284 82.8354 147.492 80.8873C152.007 79.7097 164.091 82.7782 170.092 82.3164L170.703 82.2636C179.56 81.6063 188.44 84.3979 197.255 84.4803C200.546 84.5118 203.221 81.6987 206.533 81.3918C214.711 80.6338 237.406 84.7911 243.822 89.4315Z" fill="#33425B"/>
<path d="M129.488 57.9456C138.294 58.0626 147.117 58.8822 155.911 58.3966C159.026 58.7866 161.745 58.6709 164.13 60.9316C164.687 62.2935 165.066 63.0402 164.47 64.5379C162.45 69.6142 151.896 74.7937 147.216 77.9251C136.813 77.7647 126.353 76.7739 115.967 76.1059C109.712 75.7033 103.364 75.7335 97.1414 75.0648C97.1571 74.4937 97.1797 73.93 97.2628 73.3633C97.6521 70.7081 112.492 60.0749 115.441 57.833C120.133 58.1136 124.806 58.5388 129.488 57.9456Z" fill="#F0F5FB"/>
<path d="M5.08301 71.0006C18.7111 68.5166 18.7626 69.7514 30.33 60.9882C34.5571 57.7858 39.5353 54.6532 44.7079 53.2813C56.0784 50.2651 95.0509 51.7691 107.704 53.6726C115.03 54.7753 122.121 56.914 129.488 57.945C124.806 58.5382 120.132 58.1129 115.44 57.8324C112.492 60.0743 97.652 70.7075 97.2626 73.3626C97.1796 73.9294 97.1569 74.493 97.1412 75.0642C97.8809 75.6435 98.2552 76.1235 98.7295 76.9331C95.6026 79.0334 27.3849 73.8093 18.5287 72.9745C14.0248 72.5499 9.55923 71.6636 5.08301 71.0006Z" fill="url(#paint0_linear_273_18876)"/>
<path d="M163.148 57.8164C170.741 58.0032 178.304 58.8663 185.878 59.4054C190.752 59.752 195.708 59.6979 200.556 60.2099C205.72 60.6156 211.402 60.6477 216.447 61.7385C217.302 63.3708 217.931 65.5051 219.831 66.114C224.63 67.6571 231.782 66.4405 236.953 66.6443C248.269 67.0897 259.932 67.7715 271.21 68.7591C280.998 69.6165 290.692 71.9647 300.347 73.7285C308.085 75.1407 315.954 76.022 323.615 77.7657C316.545 86.6502 304.26 90.3822 293.849 93.7426C277.274 93.4872 260.372 90.8616 243.822 89.4311C237.406 84.7907 214.71 80.6334 206.532 81.3914C203.22 81.6984 200.546 84.5114 197.255 84.48C188.439 84.3976 179.56 81.6059 170.703 82.2633C167.703 81.3763 165.189 74.6979 162.451 72.1912C162.668 71.9081 162.878 71.6194 163.099 71.3388C164.9 69.0422 166.731 66.7462 166.307 63.591C165.987 61.2094 165.03 59.3173 163.148 57.8164Z" fill="#1E3A5D"/>
<path d="M327.988 73.1475C333.919 74.5886 340.059 75.4793 346.072 76.5619L349.45 74.2149C358.452 75.4529 367.516 76.3247 376.549 77.3066C391.067 78.3565 408.542 80.4631 422.934 82.7887C431.948 84.2443 440.843 86.4119 449.939 87.3222L451.172 88.8583C464.973 90.6586 479.334 92.1733 493.254 91.8846C494.651 93.0772 495.223 93.8748 495.733 95.6462C495.16 97.3874 494.814 97.5276 493.173 98.3636C488.505 100.736 453.254 114.797 449.631 115.268C444.976 115.873 440.258 114.381 435.918 112.886C433.722 112.128 431.508 111.176 429.269 110.581C424.784 109.696 419.959 109.942 415.398 109.657C406.221 109.023 397.048 108.337 387.878 107.599C374.97 106.501 362.094 104.3 349.211 102.882C343.204 102.221 297.052 98.5763 295.07 97.0898C293.869 96.1884 294.045 95.1241 293.85 93.7427C304.26 90.3824 316.545 86.6504 323.616 77.7659L327.988 73.1475Z" fill="#F0F5FB"/>
<path d="M349.451 74.2148C358.452 75.4528 367.517 76.3246 376.55 77.3066C391.068 78.3564 408.542 80.4631 422.935 82.7886C431.949 84.2442 440.843 86.4119 449.939 87.3221L451.172 88.8582C439.749 87.6353 428.344 87.3529 416.959 86.2351C393.232 83.7756 369.591 80.5495 346.073 76.5618L349.451 74.2148Z" fill="#1E3A5D"/>
<path d="M493.254 91.8848C495.229 92.081 496.519 92.8359 497.783 94.3965C498.161 94.8551 498.167 94.9268 498.387 95.3866C503.897 96.0414 537.331 101.611 539.727 99.9578C547.194 100.751 611.928 112.727 615.797 114.65L619.25 115.052C626.364 119.425 645.726 122.044 654.482 124.093L730.363 141.821C733.93 142.679 740.88 142.741 743.787 144.568L745.485 143.537L745.579 140.841C748.366 137.723 754.292 140.372 758.154 139.7C758.292 139.677 758.424 139.647 758.556 139.62C763.362 140.36 787.033 143.52 789.568 145.325L790.681 146.99C790.153 148.067 789.87 147.955 788.826 148.443C790.002 150.053 790.304 150.705 792.424 150.94C795.676 151.298 798.972 150.539 802.256 150.996L802.23 151.302L802.74 151.631C804.451 151.68 806.174 151.444 807.659 152.328L807.822 152.889C812.54 155.163 821.252 152.979 826.687 153.662C833.833 154.559 840.646 158.027 847.791 158.604C851.465 158.902 855.069 158.487 858.554 157.279C861.725 156.178 865.065 155.075 868.072 153.576C869.537 156.834 869.625 214.767 868.361 217.74C868.279 217.939 868.178 218.131 868.084 218.327C868.763 220.608 868.782 220.94 868.109 223.22C868.392 225.005 868.512 225.407 867.833 227.148C863.203 226.201 854.61 225.449 851.037 222.334C851.125 220.897 851.345 219.473 851.534 218.047C850.077 219.818 848.609 221.579 847.131 223.331C842.627 220.083 805.703 209.945 798.903 209.071C796.821 208.104 794.789 207.858 792.543 207.558C788.392 208.668 782.869 207.7 778.774 206.77C758.424 202.149 737.131 194.624 716.864 189.129C710.75 187.471 704.44 186.41 698.282 184.887C691.646 183.244 685.135 181.034 678.518 179.274C672.322 177.625 665.994 176.463 659.785 174.862C628.912 166.909 598.02 158.674 566.82 152.026L483.686 134.78C478.642 133.777 473.597 132.73 468.508 131.979C464.4 131.373 459.255 131.245 455.361 129.889C453.499 129.239 453.134 127.174 452.423 125.492L451.461 125.58L449.687 128.321C438.792 126.596 427.381 122.891 416.933 119.398C421.311 118.821 437.61 122.629 443.365 123.604C443.906 123.696 444.447 123.8 444.994 123.855C447.378 124.094 450.662 123.121 452.48 121.565C452.826 120.14 452.801 120.058 452.247 118.694C449.863 116.793 441.736 116.631 438.327 115.879C435.276 115.206 424.318 113.349 422.796 110.962C424.916 110.151 427.042 110.451 429.268 110.581C431.508 111.177 433.722 112.128 435.917 112.886C440.258 114.381 444.976 115.873 449.63 115.268C453.254 114.797 488.505 100.736 493.172 98.3638C494.814 97.5279 495.16 97.3876 495.732 95.6464C495.223 93.875 494.651 93.0774 493.254 91.8848Z" fill="url(#paint1_linear_273_18876)"/>
<path d="M628.792 149.816L629.793 147.226C631.233 146.128 631.598 146.087 633.416 145.892C635.341 146.307 635.662 146.117 636.869 147.769C636.41 149.597 636.158 149.724 634.825 150.941C632.705 150.901 630.818 150.355 628.792 149.816Z" fill="#8B94B4"/>
<path d="M827.857 199.096C832.028 197.943 832.852 201.232 836.412 200.892C837.419 200.16 838.444 199.265 839.708 199.102C840.621 198.986 840.495 199.084 841.168 199.559L840.727 201.654C841.212 202.679 841.35 202.728 841.08 203.81C839.388 204.483 838.362 204.287 836.607 203.829C833.406 202.996 829.612 201.934 827.857 199.096Z" fill="#0A1019"/>
<path d="M846.376 204.134C846.848 204.057 846.873 204.044 847.414 204.003C851.39 203.7 861.108 206.694 864.033 209.151L863.386 210.648C863.272 210.72 863.178 210.82 863.058 210.864C860.291 211.859 851.843 208.604 849.169 207.357C847.244 206.456 847.106 206.019 846.376 204.134Z" fill="#5F7193"/>
<path d="M754.575 174.881C754.002 174.916 753.688 177.117 752.914 177.912L750.932 177.851C748.75 176.633 746.567 175.05 745.24 172.867C744.56 171.751 744.447 171.511 744.705 170.261C744.881 170.168 745.045 170.063 745.227 169.983C747.888 168.798 755.977 172.318 758.638 173.566L758.33 174.97C757.43 175.018 756.6 175.02 755.707 174.931L754.575 174.881Z" fill="black"/>
<path d="M754.574 174.881L755.707 174.931C759.009 175.782 769.91 177.556 771.659 180.259C771.772 180.438 771.867 180.629 771.967 180.814L771.25 183.036C771.124 183.045 770.999 183.063 770.867 183.063C767.545 183.053 757.21 180.707 754.983 178.24C754.241 177.411 754.562 175.973 754.574 174.881Z" fill="#5F7193"/>
<path d="M868.11 223.22C864.518 221.538 860.14 221.728 856.472 220.193C854.906 219.537 854.428 219.203 853.843 217.657C854.428 216.739 854.554 216.29 855.567 215.881C859.259 214.393 864.681 216.75 868.084 218.326C868.764 220.607 868.783 220.94 868.11 223.22Z" fill="#5F7193"/>
<path d="M801.123 186.522C801.432 186.51 801.74 186.505 802.042 186.514C806.313 186.636 829.902 193.224 832.43 195.955L830.795 197.159L830.524 197.581C826.964 198.531 806.514 192.364 802.243 190.529C801.463 189.309 801.356 187.923 801.123 186.522Z" fill="#5F7193"/>
<path d="M758.638 173.566C768.848 174.02 778.365 179.545 788.656 180.288C790.235 180.402 791.763 179.886 793.311 179.901L792.694 180.959C790.43 181.438 786.612 181.621 784.875 183.126L784.901 184.607L785.674 185.228C788.536 184.168 790.512 182.775 793.663 182.462L794.531 183.075C793.361 184.019 790.644 184.556 789.159 185.126C789.008 185.533 788.782 186.173 788.574 186.533C787.744 187.959 787.134 187.78 785.668 188.011C783.68 186.459 784.517 184.11 782.416 182.518C779.724 183.071 779.642 185.16 776.994 185.892C774.805 185.321 773.144 184.224 771.25 183.036L771.968 180.814C771.867 180.629 771.773 180.437 771.659 180.259C769.911 177.556 759.009 175.782 755.707 174.931C756.6 175.02 757.431 175.018 758.33 174.97L758.638 173.566Z" fill="#0A1019"/>
<path d="M802.74 151.631C804.451 151.68 806.174 151.444 807.659 152.328L807.822 152.889C808.514 153.918 808.722 154.084 808.735 155.302C808.552 155.405 760.758 165.915 759.557 165.915C758.519 165.914 758.556 165.859 757.833 165.137L758.022 163.97C763.935 158.409 792.801 154.982 801.947 151.913C802.212 151.824 802.476 151.726 802.74 151.631Z" fill="#33425B"/>
<path d="M793.311 179.901C801.488 178.268 862.203 165.001 865.807 165.559L866.537 166.443C866.122 167.764 866.034 167.956 864.788 168.626C861.083 170.617 801.243 182.655 794.531 183.075L793.663 182.462C790.512 182.775 788.536 184.169 785.674 185.229L784.901 184.608L784.875 183.126C786.612 181.622 790.43 181.438 792.694 180.959L793.311 179.901Z" fill="black"/>
<path d="M597.618 153.514C592.441 150.966 580.552 149.388 574.583 148.06C551.061 142.755 527.479 137.725 503.841 132.97C494.726 131.212 485.624 129.268 476.503 127.581C470.836 126.533 464.791 125.902 459.23 124.439C457.494 123.982 456.33 123.424 455.147 122.078C455.059 120.461 455.317 120.474 456.324 119.291C463.231 117.916 539.589 134.021 552.333 136.519C562.958 134.813 576.489 142.22 587.453 140.89L589.453 140.302C589.73 139.024 589.723 138.37 589.434 137.095C596.416 134.72 609.84 139.886 616.986 141.594C620.741 142.433 630.73 143.587 633.416 145.892C631.598 146.088 631.234 146.128 629.793 147.226L628.793 149.816C630.818 150.356 632.705 150.902 634.825 150.941L633.762 151.792L634.416 151.152L632.303 152.136C633.001 152.162 632.51 152.196 633.278 151.97C633.989 151.758 634.316 151.837 635.014 152.011C635.744 152.923 636.499 153.621 636.719 154.789C657.238 160.762 678.298 165.059 698.962 170.524C737.212 180.669 775.314 191.362 813.258 202.6C819.12 204.284 849.018 212.636 851.836 214.695L851.925 215.811L850.459 217.33C848.905 217.749 847.622 217.583 846.068 217.233C840.344 215.944 834.714 213.594 829.059 211.943C817.302 208.507 805.426 205.392 793.607 202.164C750.724 190.026 707.59 178.795 664.233 168.477C649.494 164.86 634.8 161.457 619.986 158.178C612.834 156.594 605.468 154.489 598.209 153.584L597.618 153.514Z" fill="#5F7193"/>
<path d="M552.333 136.518C562.957 134.812 576.488 142.219 587.452 140.89L589.452 140.301C589.729 139.024 589.723 138.37 589.434 137.095C596.416 134.72 609.84 139.886 616.985 141.593C620.741 142.433 630.73 143.587 633.416 145.892C631.598 146.087 631.233 146.128 629.793 147.226L628.792 149.816C630.818 150.355 632.705 150.901 634.825 150.941L633.762 151.792L634.416 151.152L632.302 152.135C633.001 152.161 632.51 152.196 633.277 151.97C633.988 151.758 634.315 151.837 635.014 152.011C635.743 152.923 636.498 153.621 636.718 154.789C628.138 152.332 619.023 151.218 610.286 149.309L552.333 136.518Z" fill="#33425B"/>
<path d="M589.434 137.095C596.416 134.72 609.84 139.886 616.986 141.593C620.741 142.433 630.73 143.587 633.416 145.892C631.598 146.087 631.234 146.128 629.793 147.226L628.793 149.816C621.351 146.053 598.958 142.777 589.453 140.301C589.73 139.024 589.723 138.37 589.434 137.095Z" fill="#5F7193"/>
<path d="M493.254 91.8848C495.229 92.081 496.519 92.8359 497.783 94.3965C498.161 94.8551 498.167 94.9268 498.387 95.3866C503.897 96.0414 537.331 101.611 539.727 99.9578C547.194 100.751 611.928 112.727 615.797 114.65L619.25 115.052C626.364 119.425 645.726 122.044 654.482 124.093L730.363 141.821C733.93 142.679 740.88 142.741 743.787 144.568L745.485 143.537L745.579 140.841C748.366 137.723 754.292 140.372 758.154 139.7C758.292 139.677 758.424 139.647 758.556 139.62C763.362 140.36 787.033 143.52 789.568 145.325L790.681 146.99C790.153 148.067 789.87 147.955 788.826 148.443C790.002 150.053 790.304 150.705 792.424 150.94C795.676 151.298 798.972 150.539 802.256 150.996L802.23 151.302C799.029 151.182 796.355 151.296 793.248 152.107L793.524 152.201C781.887 155.487 767.715 157.247 757.103 162.883C753.071 165.024 747.265 163.623 742.78 164.467C739.163 165.147 735.452 167.228 731.697 168.127C723.469 165.389 714.48 164.348 706.007 162.505C695.558 160.233 683.33 155.297 672.611 155.907L671.982 155.947C671.347 155.45 670.925 154.993 670.485 154.33L670.019 153.626C661.477 151.544 622.282 140.026 616.985 141.594C609.84 139.887 596.416 134.72 589.434 137.095C589.723 138.371 589.729 139.024 589.453 140.302L587.452 140.89C576.488 142.22 562.958 134.813 552.333 136.519C539.589 134.021 463.23 117.916 456.323 119.291C455.317 120.474 455.059 120.461 455.147 122.078C456.33 123.424 457.493 123.982 459.229 124.439C464.79 125.902 470.835 126.533 476.503 127.581C485.624 129.268 494.726 131.212 503.841 132.97C527.479 137.725 551.061 142.755 574.582 148.06C580.552 149.388 592.44 150.966 597.617 153.514C606.764 158.834 622.804 160.002 633.498 162.881C650.846 167.55 789.033 204.243 792.543 207.558C788.392 208.668 782.869 207.7 778.774 206.77C758.424 202.149 737.131 194.624 716.864 189.129C710.75 187.471 704.44 186.41 698.282 184.887C691.646 183.244 685.135 181.034 678.518 179.274C672.322 177.625 665.994 176.463 659.785 174.862C628.912 166.909 598.02 158.674 566.82 152.026L483.686 134.78C478.642 133.777 473.597 132.73 468.508 131.979C464.4 131.373 459.255 131.245 455.361 129.889C453.499 129.239 453.134 127.174 452.423 125.492L451.461 125.58L449.687 128.321C438.792 126.596 427.381 122.891 416.933 119.398C421.311 118.821 437.61 122.629 443.365 123.604C443.906 123.696 444.447 123.8 444.994 123.855C447.378 124.094 450.662 123.121 452.48 121.565C452.826 120.14 452.801 120.058 452.247 118.694C449.863 116.793 441.736 116.631 438.327 115.879C435.276 115.206 424.318 113.349 422.796 110.962C424.916 110.151 427.042 110.451 429.268 110.581C431.508 111.177 433.722 112.128 435.917 112.886C440.258 114.381 444.976 115.873 449.63 115.268C453.254 114.797 488.505 100.736 493.172 98.3638C494.814 97.5279 495.16 97.3876 495.732 95.6464C495.223 93.875 494.651 93.0774 493.254 91.8848Z" fill="url(#paint2_linear_273_18876)"/>
<path d="M587.452 140.89C586.628 140.083 585.326 140.143 584.194 139.958L584.276 138.854C585.062 138.132 585.905 137.236 586.892 136.815C588.094 136.304 588.32 136.595 589.434 137.095C589.723 138.37 589.729 139.024 589.453 140.301L587.452 140.89Z" fill="#1E3A5D"/>
<path d="M540.476 128.647C541.627 128.457 542.772 128.337 543.936 128.408C546.917 128.587 549.949 128.801 552.019 131.118L551.34 132.431C548.861 132.766 543.433 132.841 541.394 131.299C540.489 130.612 540.64 129.717 540.476 128.647Z" fill="#021C3D"/>
<path d="M563.323 131.792C568.292 130.964 578.759 131.752 582.886 134.698C583.125 136.402 582.489 136.73 581.514 138.096L580.734 138.848C576.079 138.178 569.129 137.742 565.216 135.081C563.807 134.122 563.675 133.32 563.323 131.792Z" fill="#5F7193"/>
<path d="M745.485 143.538L745.58 140.841C748.366 137.723 754.292 140.372 758.154 139.701C758.293 139.677 758.425 139.647 758.557 139.62C763.362 140.36 787.033 143.52 789.568 145.325L790.682 146.99C790.153 148.067 789.87 147.955 788.826 148.443C781.837 148.347 764.287 150.853 759.683 149.188C755.33 147.771 748.744 147.44 746.051 143.537L745.485 143.538Z" fill="#33425B"/>
<path d="M746.051 143.537L746.517 140.426C747.347 140.217 768.099 144.667 770.709 145.291C767.728 147.772 763.576 149.455 759.682 149.188C755.329 147.771 748.743 147.44 746.051 143.537Z" fill="#8B94B4"/>
<path d="M615.797 114.649L619.25 115.051C626.365 119.425 645.726 122.044 654.483 124.093L730.363 141.821C733.93 142.679 740.881 142.741 743.787 144.568C743.472 144.513 743.177 144.444 742.85 144.478C741.132 144.656 740.673 145.602 739.604 146.823C738.981 147.538 738.39 148.301 737.629 148.88C735.635 150.399 731.307 150.703 728.822 151.105C708.567 154.383 684.538 153.994 664.761 148.465C652.426 145.017 641.757 138.175 629.17 135.443C623.421 134.194 621.93 130.899 618.992 126.428L618.238 126.693C618.064 127.994 617.85 129.29 617.596 130.577C615.13 128.464 618.225 119.27 617.804 115.851L615.797 114.649Z" fill="#021C3D"/>
<path d="M41.1904 351.887C53.6359 353.789 66.1726 354.071 78.6313 355.638C95.9933 357.82 113.366 361.45 130.766 363.199C142.833 364.412 155.205 364.132 167.19 365.902C173.864 366.889 179.9 370.532 186.579 371.501L394.319 401.241C405.824 402.856 417.38 404.743 428.86 406.528C438.427 408.015 447.303 410.268 457.072 409.156C468.973 415.401 482.888 418.033 495.852 421.246L530.317 430.055C556.365 436.817 582.464 444.403 608.166 452.379C617.193 455.185 628.466 456.6 636.505 461.569C655.294 466.268 673.737 472.967 692.155 478.956C715.166 486.429 738.427 493.531 761.098 501.972C764.652 503.211 771.169 504.62 773.163 507.904L773.125 508.697C773.087 508.848 773.043 508.992 773.005 509.137C771.408 515.138 774.339 525.473 768.401 529.241C762.048 533.279 729.904 542.319 722.739 541.256L722.381 541.193C722.179 541.161 721.984 541.117 721.783 541.086C709.536 539.098 696.879 533.814 685.079 529.964C667.107 524.102 648.966 518.535 630.868 513.087C586.735 499.802 541.627 489.215 497.173 476.968C490.21 475.049 468.156 470.181 463.765 467.922L459.783 465.853C434.936 461.116 410.605 453.486 385.632 449.485C355.281 444.629 324.742 441.478 294.322 437.2C251.371 431.162 208.497 424.196 165.474 418.613C129.66 413.965 93.5797 410.856 57.9781 404.644C54.214 403.987 47.4821 402.922 44.6049 400.439C35.8091 392.848 41.1156 373.485 40.0487 363.295C41.198 359.682 41.0533 355.651 41.1904 351.887Z" fill="url(#paint3_linear_273_18876)"/>
<path d="M636.505 461.569C655.294 466.268 673.738 472.967 692.156 478.955C715.166 486.428 738.428 493.53 761.098 501.972C764.652 503.211 771.169 504.62 773.163 507.904L773.125 508.696C773.087 508.847 773.043 508.992 773.006 509.137C771.408 515.138 774.339 525.473 768.401 529.241C762.048 533.279 729.904 542.318 722.739 541.255C723.205 540.79 723.771 540.198 724.004 539.576C725.142 536.607 723.702 503.859 723.148 498.915C722.978 497.348 722.62 495.983 721.909 494.562C716.166 493.096 710.542 490.756 704.9 488.894C692.338 484.749 679.6 480.471 666.887 476.836C670.334 476.156 698.433 485.78 704.353 487.831C709.077 489.467 715.518 493.014 720.55 492.442C721.934 492.285 722.079 492.153 722.934 491.09C722.142 489.712 721.607 489.335 720.11 488.705C715.078 486.604 708.995 485.334 703.743 483.585C689.148 478.629 674.483 473.879 659.754 469.337C654.47 467.733 640.474 464.84 636.505 461.569Z" fill="black"/>
<path d="M459.784 465.853L459.048 464.217L459.897 463.928C460.79 464.463 461.677 464.991 462.558 465.557C464.023 466.507 465.891 467.092 467.508 467.74C468.401 465.928 467.571 462.437 467.678 460.311C467.911 455.725 468.622 451.171 468.854 446.585C469.081 442 467.873 424.934 470.408 421.96C481.334 422.241 493.443 428.595 503.967 431.451C519.271 435.609 535.098 438.081 550.277 442.364C557.662 444.447 564.87 447.378 572.211 449.668C594.188 456.77 616.376 463.204 638.744 468.96C643.934 470.313 663.239 477.421 666.887 476.836C679.6 480.472 692.338 484.749 704.9 488.894C710.543 490.756 716.166 493.096 721.909 494.562C722.62 495.983 722.979 497.349 723.148 498.915C723.702 503.859 725.142 536.607 724.004 539.576C723.771 540.198 723.205 540.79 722.74 541.255L722.381 541.192C722.18 541.161 721.985 541.117 721.783 541.085C709.536 539.098 696.88 533.814 685.079 529.964C667.108 524.101 648.966 518.534 630.869 513.087C586.736 499.802 541.627 489.215 497.173 476.968C490.21 475.049 468.156 470.18 463.765 467.922L459.784 465.853Z" fill="#021C3D"/>
<path d="M636.549 492.857C636.951 492.845 637.511 492.801 637.895 492.901C639.285 493.273 639.405 493.839 639.946 495.021C639.323 496.82 639.21 496.908 637.624 497.984L636.171 496.55C635.681 494.839 635.983 494.493 636.549 492.857Z" fill="#1E3A5D"/>
<path d="M0.760216 83.2682C15.5715 82.8763 31.1741 85.2918 46.0068 86.2699C61.429 87.2577 76.8448 88.3409 92.2535 89.5196C100.016 90.1115 108.418 90.2744 116.062 91.7162C121.339 91.9873 127.41 91.8231 132.551 93.0013C152.472 93.6397 172.484 95.569 192.326 97.397C202.992 98.3795 214.081 98.828 224.605 100.693C235.777 98.9526 247.703 100.78 258.919 101.723C278.526 103.373 298.014 105.588 317.564 107.724C333.9 109.508 350.62 110.499 366.849 112.786C379.807 114.612 392.432 117.005 405.491 118.378C409.108 118.758 413.31 119.579 416.933 119.398C427.381 122.891 438.792 126.596 449.687 128.321L451.461 125.58L452.423 125.492C453.134 127.174 453.499 129.239 455.361 129.889C459.255 131.245 464.4 131.373 468.508 131.979C473.597 132.73 478.641 133.777 483.686 134.78L566.82 152.026C598.02 158.674 628.912 166.909 659.785 174.862C665.994 176.463 672.322 177.625 678.518 179.274C685.135 181.034 691.646 183.244 698.282 184.886C704.44 186.41 710.75 187.471 716.864 189.129C737.131 194.624 758.424 202.148 778.773 206.77C782.868 207.7 788.391 208.668 792.543 207.558C794.789 207.858 796.82 208.104 798.903 209.071C805.702 209.945 842.627 220.083 847.131 223.331C848.609 221.579 850.077 219.818 851.534 218.047C851.345 219.473 851.125 220.897 851.037 222.334C854.61 225.449 863.203 226.201 867.832 227.148C869.613 229.993 869.285 236.05 868.669 239.333C868.568 239.893 868.354 240.325 868.109 240.833C868.889 243.165 869.204 244.529 868.141 246.804C868.059 246.984 867.952 247.154 867.858 247.328C870.059 251.186 868.921 306.986 868.927 316.597L868.933 485.768C868.933 494.889 869.927 534.317 868.581 538.865C868.361 539.614 868.317 539.677 868.059 540.343C868.889 542.608 869.342 544.438 868.216 546.697C868.103 546.929 867.977 547.15 867.858 547.37C856.378 547.238 847.131 537.148 835.481 535.89L835.223 535.097C833.575 535.468 833.166 535.682 831.531 535.11L831.329 534.292L833.927 533.279C828.31 528.008 818.579 524.875 811.389 522.233C803.992 518.843 780.013 509.301 773.125 508.697L773.162 507.904C771.168 504.621 764.652 503.211 761.098 501.972C738.427 493.531 715.165 486.429 692.155 478.956C673.737 472.967 655.294 466.268 636.504 461.569C628.465 456.6 617.193 455.185 608.166 452.379C582.464 444.403 556.365 436.817 530.317 430.055L495.852 421.246C482.887 418.033 468.973 415.401 457.072 409.156C447.303 410.268 438.427 408.015 428.86 406.528C417.38 404.743 405.824 402.856 394.319 401.241L186.579 371.501C179.9 370.532 173.864 366.889 167.189 365.902C155.205 364.132 142.832 364.412 130.766 363.199C113.366 361.45 95.9931 357.82 78.6311 355.638C66.1724 354.071 53.6357 353.789 41.1903 351.887C41.0531 355.652 41.1978 359.682 40.0486 363.295C39.6597 359.745 39.3112 356.19 39.0031 352.632C31.7956 350.422 19.2797 351.871 13.585 347.097C10.9236 337.372 12.7924 310.624 12.7962 298.918C12.8012 284.809 12.3408 270.635 12.1653 256.52L10.3883 149.123C10.2096 140.505 9.41766 131.956 9.12704 123.355C8.82888 114.526 9.07733 105.634 9.17357 96.8C6.69895 96.0439 2.79454 95.274 1.23265 93.0585C-0.584639 90.4826 0.439408 86.1913 0.760216 83.2682Z" fill="#021C3D"/>
<path d="M844.772 241.479C848.225 241.731 851.515 242.193 854.403 244.267C852.805 266.853 854.195 291.69 854.063 314.54L853.421 472.678C853.348 486.833 853.357 500.989 853.446 515.144C853.465 521.045 854.327 528.926 853.126 534.613C857.963 536.047 863.895 537.513 868.059 540.343C868.889 542.608 869.342 544.438 868.216 546.697C868.103 546.929 867.977 547.15 867.858 547.37C856.378 547.238 847.131 537.148 835.481 535.89L835.223 535.097C833.575 535.468 833.166 535.682 831.531 535.11L831.33 534.292L833.927 533.279C828.31 528.008 818.579 524.875 811.389 522.233C803.992 518.843 780.013 509.3 773.125 508.697L773.163 507.904C771.169 504.62 764.652 503.211 761.098 501.972C767.816 501.714 789.335 512.59 797.255 515.547C808.282 519.661 820.007 521.869 831.204 525.574C837.041 527.511 843.376 531.455 849.584 531.531C850.421 529.75 850.326 527.247 850.364 525.309C850.893 499.406 850.194 473.408 850.358 447.491L852.176 244.863C850.911 243.258 846.785 242.256 844.772 241.479Z" fill="#071426"/>
<path d="M811.389 522.233C816.057 520.774 846.433 531.763 852.749 534.392C852.881 534.449 853 534.543 853.126 534.612C857.963 536.047 863.895 537.512 868.059 540.343C868.89 542.607 869.342 544.438 868.217 546.696C868.103 546.929 867.977 547.149 867.858 547.369C856.378 547.237 847.131 537.147 835.481 535.889L835.224 535.097C833.575 535.468 833.167 535.682 831.531 535.109L831.33 534.292L833.928 533.279C828.31 528.008 818.579 524.875 811.389 522.233Z" fill="#0A1019"/>
<path d="M854.403 244.267C858.441 245.259 863.738 247.233 867.858 247.328C870.059 251.185 868.921 306.986 868.927 316.596L868.933 485.768C868.933 494.889 869.927 534.317 868.581 538.865C868.361 539.614 868.317 539.676 868.059 540.343C863.895 537.513 857.963 536.047 853.126 534.613C854.327 528.926 853.465 521.044 853.447 515.144C853.357 500.989 853.348 486.833 853.421 472.678L854.063 314.54C854.195 291.69 852.805 266.853 854.403 244.267Z" fill="#021C3D"/>
<path d="M844.772 241.48C839.985 238.163 808.823 230.088 801.475 227.909C711.716 200.427 620.634 177.462 528.574 159.102C507.395 154.903 486.127 150.013 464.796 146.673C461.312 146.127 458.556 146.171 455.669 148.404C455.462 148.565 455.26 148.732 455.053 148.896C452.775 147.42 450.404 144.8 447.976 143.803C446.693 143.277 426.614 142.171 422.613 141.364C411.699 139.164 400.968 136.274 389.929 134.596C375.87 132.459 361.597 131.526 347.456 130.102C337.725 129.123 327.918 127.5 318.193 126.271C273.714 120.384 229.141 115.23 184.492 110.813C158.449 108.335 132.267 106.717 106.185 104.569C84.5894 102.79 62.9253 101.816 41.3054 100.294C33.8035 99.7665 26.0997 99.6715 18.6444 98.743C12.6358 97.9945 7.39847 95.6085 2.41021 92.2363C1.68745 90.6077 1.80821 89.0005 1.8208 87.2606C3.63997 87.1386 6.1391 86.6825 7.87964 87.1883C16.0099 89.5484 23.0325 86.3579 31.0496 86.6316C45.3501 87.1191 59.9368 88.2318 74.192 89.4157C83.6879 90.2039 107.507 93.6654 115.487 91.8632C115.68 91.8198 115.871 91.7651 116.062 91.7161C121.339 91.9872 127.41 91.823 132.551 93.0012C152.472 93.6397 172.484 95.5689 192.326 97.3969C202.992 98.3794 214.081 98.8279 224.605 100.693C235.777 98.9525 247.703 100.78 258.919 101.723C278.526 103.373 298.014 105.588 317.564 107.724C333.9 109.508 350.62 110.498 366.849 112.786C379.807 114.612 392.432 117.005 405.491 118.378C409.108 118.758 413.31 119.579 416.933 119.397C427.381 122.891 438.792 126.595 449.687 128.321L451.461 125.58L452.423 125.492C453.134 127.174 453.499 129.239 455.361 129.889C459.255 131.245 464.4 131.373 468.508 131.979C473.597 132.73 478.641 133.777 483.686 134.78L566.82 152.026C598.02 158.674 628.912 166.909 659.785 174.862C665.994 176.463 672.322 177.625 678.518 179.274C685.135 181.034 691.646 183.244 698.282 184.886C704.44 186.41 710.75 187.471 716.864 189.129C737.131 194.624 758.424 202.148 778.773 206.77C782.869 207.7 788.391 208.668 792.543 207.557C794.789 207.858 796.821 208.104 798.903 209.071C805.703 209.945 842.627 220.083 847.131 223.331C848.609 221.579 850.077 219.818 851.534 218.047C851.345 219.473 851.125 220.897 851.037 222.334C854.61 225.449 863.203 226.201 867.832 227.148C869.613 229.993 869.286 236.05 868.669 239.333C868.568 239.893 868.355 240.325 868.109 240.833C868.889 243.165 869.204 244.528 868.141 246.804C868.059 246.984 867.952 247.153 867.858 247.328C863.737 247.233 858.441 245.259 854.402 244.267C851.515 242.193 848.225 241.731 844.772 241.48Z" fill="url(#paint4_linear_273_18876)"/>
<path d="M798.903 209.071C805.703 209.945 842.627 220.083 847.131 223.331C848.61 221.579 850.077 219.817 851.534 218.047C851.346 219.473 851.126 220.897 851.037 222.333C854.61 225.448 863.203 226.201 867.833 227.148C869.613 229.993 869.286 236.05 868.669 239.333C868.569 239.893 868.355 240.324 868.11 240.833C864.518 239.258 859.121 238.451 855.177 238.108C854.315 237.878 853.617 237.747 852.717 237.725C851.893 237.705 850.993 237.755 850.182 237.61C848.024 237.222 847.735 236.158 846.735 234.408C847.012 232.078 847.307 228.86 846.376 226.689C834.387 222.043 812.786 218.462 802.948 212.838C801.325 211.91 800.104 210.474 798.903 209.071Z" fill="#071426"/>
<path d="M132.551 93.001C152.472 93.6394 172.484 95.5687 192.326 97.3967C202.992 98.3792 214.082 98.8277 224.605 100.693C256.013 106.631 287.345 109.68 319.024 113.488C329.296 114.722 347.418 115.596 356.539 118.356C367.214 120.304 377.92 121.838 388.557 124.002C384.047 124.495 379.43 123.956 374.907 123.754C357.124 122.959 339.757 120.073 322.087 118.268C315.721 118.545 311.425 115.219 305.525 114.415C292.768 112.677 279.866 112.627 267.078 110.581C261.807 109.737 256.598 108.495 251.321 107.692C245.967 106.878 240.394 106.528 235.11 105.407C229.883 104.298 225.102 102.219 219.749 101.55C202.112 99.346 184.18 97.7426 166.452 96.494C156.632 95.8021 146.442 95.7568 136.7 94.4333C135.189 94.2282 133.883 93.7275 132.551 93.001Z" fill="#021C3D"/>
<path d="M224.605 100.693C235.777 98.952 247.703 100.779 258.919 101.723C278.526 103.373 298.014 105.588 317.564 107.724C333.9 109.508 350.62 110.498 366.849 112.785C379.807 114.611 392.432 117.005 405.491 118.377C409.108 118.757 413.31 119.578 416.933 119.397C427.381 122.891 438.792 126.595 449.687 128.32C449.423 129.272 449.033 129.468 448.347 130.15C443.535 130.165 438.188 128.829 433.338 128.33C418.436 126.796 403.503 125.04 388.557 124.002C377.92 121.838 367.214 120.303 356.539 118.355C347.418 115.596 329.296 114.722 319.024 113.488C287.345 109.68 256.013 106.631 224.605 100.693Z" fill="#1E3A5D"/>
<defs>
<linearGradient id="paint0_linear_273_18876" x1="82.4041" y1="35.3261" x2="41.4847" y2="92.5231" gradientUnits="userSpaceOnUse">
<stop stop-color="#5D4159"/>
<stop offset="1" stop-color="#3C5583"/>
</linearGradient>
<linearGradient id="paint1_linear_273_18876" x1="754.153" y1="142.523" x2="747.611" y2="203.535" gradientUnits="userSpaceOnUse">
<stop stop-color="#22324A"/>
<stop offset="1" stop-color="#364D71"/>
</linearGradient>
<linearGradient id="paint2_linear_273_18876" x1="633.051" y1="188.533" x2="609.5" y2="72.8784" gradientUnits="userSpaceOnUse">
<stop stop-color="#0D2D47"/>
<stop offset="1" stop-color="#4C577E"/>
</linearGradient>
<linearGradient id="paint3_linear_273_18876" x1="386.96" y1="398.091" x2="375.555" y2="460.978" gradientUnits="userSpaceOnUse">
<stop stop-color="#020D1F"/>
<stop offset="1" stop-color="#04264D"/>
</linearGradient>
<linearGradient id="paint4_linear_273_18876" x1="432.86" y1="179.541" x2="440.459" y2="129.929" gradientUnits="userSpaceOnUse">
<stop stop-color="#000918"/>
<stop offset="1" stop-color="#031935"/>
</linearGradient>
</defs>
</svg>
